<mxfile host="65bd71144e">
    <diagram id="PbdzW_yMyfYt_DsGTmeI" name="Page-1">
        <mxGraphModel dx="1427" dy="728" grid="1" gridSize="10" guides="1" tooltips="1" connect="1" arrows="1" fold="1" page="1" pageScale="1" pageWidth="827" pageHeight="1169" math="0" shadow="0">
            <root>
                <mxCell id="0"/>
                <mxCell id="1" parent="0"/>
                <mxCell id="105" value="" style="rounded=0;whiteSpace=wrap;html=1;fontSize=24;strokeColor=none;" vertex="1" parent="1">
                    <mxGeometry x="148" y="230" width="920" height="620" as="geometry"/>
                </mxCell>
                <mxCell id="5" value="" style="rounded=1;whiteSpace=wrap;html=1;strokeWidth=2;fillColor=#dae8fc;strokeColor=none;arcSize=5;" parent="1" vertex="1">
                    <mxGeometry x="620" y="370" width="430" height="460" as="geometry"/>
                </mxCell>
                <mxCell id="28" value="SISTEM" style="rounded=1;whiteSpace=wrap;html=1;strokeColor=none;fontStyle=1;fontSize=15;" vertex="1" parent="1">
                    <mxGeometry x="640" y="390" width="110" height="40" as="geometry"/>
                </mxCell>
                <mxCell id="48" value="" style="endArrow=classic;startArrow=classic;html=1;rounded=0;fontSize=15;startSize=14;endSize=14;sourcePerimeterSpacing=8;targetPerimeterSpacing=8;exitX=0.5;exitY=1;exitDx=0;exitDy=0;entryX=0.25;entryY=0;entryDx=0;entryDy=0;strokeWidth=2;edgeStyle=orthogonalEdgeStyle;" edge="1" parent="1" source="40" target="14">
                    <mxGeometry width="50" height="50" relative="1" as="geometry">
                        <mxPoint x="790" y="535" as="sourcePoint"/>
                        <mxPoint x="900" y="535" as="targetPoint"/>
                    </mxGeometry>
                </mxCell>
                <mxCell id="89" value="" style="group" vertex="1" connectable="0" parent="1">
                    <mxGeometry x="910" y="474" width="110" height="110" as="geometry"/>
                </mxCell>
                <mxCell id="36" value="" style="rounded=1;whiteSpace=wrap;html=1;strokeColor=none;" vertex="1" parent="89">
                    <mxGeometry width="110" height="110" as="geometry"/>
                </mxCell>
                <mxCell id="37" value="Admin Server" style="aspect=fixed;html=1;points=[];align=center;image;fontSize=12;image=img/lib/azure2/other/WAC.svg;fillColor=#D0FFB0;" vertex="1" parent="89">
                    <mxGeometry x="28" y="10" width="62" height="68" as="geometry"/>
                </mxCell>
                <mxCell id="14" value="" style="rounded=1;whiteSpace=wrap;html=1;strokeColor=none;" vertex="1" parent="1">
                    <mxGeometry x="670" y="670" width="330" height="110" as="geometry"/>
                </mxCell>
                <mxCell id="15" value="Windows Server" style="aspect=fixed;perimeter=ellipsePerimeter;html=1;align=center;shadow=0;dashed=0;spacingTop=3;image;image=img/lib/active_directory/windows_server_2.svg;fillColor=#a76e35;" vertex="1" parent="1">
                    <mxGeometry x="702" y="680" width="56" height="70" as="geometry"/>
                </mxCell>
                <mxCell id="90" value="MQTT Broker" style="sketch=0;outlineConnect=0;fontColor=#232F3E;gradientColor=none;fillColor=#3F8624;strokeColor=none;dashed=0;verticalLabelPosition=bottom;verticalAlign=top;align=center;html=1;fontSize=12;fontStyle=0;aspect=fixed;pointerEvents=1;shape=mxgraph.aws4.mqtt_protocol;" vertex="1" parent="1">
                    <mxGeometry x="804" y="690" width="60" height="60" as="geometry"/>
                </mxCell>
                <mxCell id="92" value="" style="shape=image;verticalLabelPosition=bottom;labelBackgroundColor=default;verticalAlign=top;aspect=fixed;imageAspect=0;image=data:image/png,iVBORw0KGgoAAAANSUhEUgAAAgAAAAIACAYAAAD0eNT6AAAABHNCSVQICAgIfAhkiAAAAAlwSFlzAAAN1wAADdcBQiibeAAAABl0RVh0U29mdHdhcmUAd3d3Lmlua3NjYXBlLm9yZ5vuPBoAACAASURBVHic7d13fBV1vv/x90kvEAiBEHrovYVeBZRiQYoUsbCWtV177150dVd/VhAsa8WGimJBFERBpBsgFOndACEBkkB6//2BeEUpmTkzZ04yr+fjsY+7d5nvdz4kIfM+3/kWz4tSmQAAgKsEOF0AAADwPQIAAAAuRAAAAMCFCAAAALgQAQAAABciAAAA4EIEAAAAXIgAAACACxEAAABwIQIAAAAuRAAAAMCFCAAAALgQAQAAABciAAAA4EIEAAAAXIgAAACACxEAAABwIQIAAAAuRAAAAMCFCAAAALgQAQAAABciAAAA4EIEAAAAXIgAAACACxEAAABwIQIAAAAuRAAAAMCFCAAAALgQAQAAABciAAAA4EIEAAAAXIgAAACACxEAAABwIQIAAAAuRAAAAMCFCAAAALgQAQAAABciAAAA4EIEAAAAXIgAAACACxEAAABwIQIAAAAuRAAAAMCFCAAAALgQAQAAABciAAAA4EIEAAAAXIgAAACACxEAAABwIQIAAAAuRAAAAMCFCAAAALgQAQAAABciAAAA4EIEAAAAXIgAAACACxEAAABwIQIAAAAuRAAAAMCFCAAAALgQAQAAABciAAAA4EIEAAAAXIgAAACACxEAAABwIQIAAAAuRAAAAMCFCAAAALgQAQAAABciAAAA4EIEAAAAXIgAAACACxEAAABwIQIAAAAuRAAAAMCFCAAAALgQAQAAABciAAAA4EIEAAAAXIgAAACACxEAAABwIQIAAAAuRAAAAMCFCAAAALgQAQAAABciAAAA4EIEAAAAXIgAAACACxEAAABwIQIAAAAuRAAAAMCFCAAAALgQAQAAABciAAAA4EIEAAAAXIgAAACACxEAAABwIQIAAAAuRAAAAMCFCAAAALgQAQAAABciAAAA4EIEAAAAXIgAAACACxEAAABwIQIAAAAuRAAAAMCFCAAAALgQAQAAABciAAAA4EIEAAAAXIgAAACACxEAAABwIQIAAAAuRAAAAMCFCAAAALgQAQAAABciAAAA4EIEAAAAXIgAAACACxEAAABwIQIAAAAuRAAAAMCFCAAAALgQAQAAABciAAAA4EIEAAAAXIgAAACACxEAAABwIQIAAAAuRAAAAMCFCAAAALgQAQAAABciAAAA4EIEAAAAXIgAAACACxEAAABwIQIAAAAuRAAAAMCFCAAAALgQAQAAABciAAAA4EIEAAAAXIgAAACACxEAAABwIQIAAAAuRAAAAMCFCAAAALgQAQAAABciAAAA4EIEAAAAXIgAAACACxEAAABwIQIAAAAuRAAAAMCFCAAAALgQAQAAABciAAAA4EIEAAAAXIgAAACACxEAAABwIQIAAAAuRAAAAMCFCAAAALgQAQAAABciAAAA4EIEAAAAXIgAAACACxEAAABwIQIAAAAuRAAAAMCFCAAAALgQAQAAABciAAAA4EIEAAAAXIgAAACACxEAAABwIQIAAAAuRAAAAMCFCAAAALgQAQAAABciAAAA4EIEAAAAXIgAAACACxEAAABwIQIAAAAuRAAAAMCFCAAAALgQAQAAABciAAAA4EIEAAAAXIgAAACACxEAAABwIQIAAAAuRAAAAMCFCAAAALgQAQAAABciAAAA4EIEAAAAXIgAAACACxEAAABwIQIAAAAuRAAAAMCFCAAAALgQAQAAABciAAAA4EIEAAAAXIgAAACACxEAAABwIQIAAAAuRAAAAMCFCAAAALgQAQAAABciAAAA4EIEAAAAXIgAAACACxEAAABwIQIAAAAuRAAAAMCFCAAAALgQAQAAABciAAAA4EIEAAAAXIgAAACACxEAAABwIQIAAAAuRAAAAMCFCAAAALgQAQAAABciAAAA4EIEAAAAXCjI6QIAwC94PIrr3l2NhgxRXI8eqtGqlcJq1FBodLTTlfmlgowM5aenK33LFh1cuVJ7583TwcREqazM6dJQTp4XJb5bAFwrODJS7W+4QR1uvFHVmzd3upwKLXP7dq1/9VWtf/11FefmOl0OzoIAAMCdPB61vvJK9Xv2WUXExjpdTaWSm5qqxffeq80ffMCIgB8jAABwndDoaA2dPl1Nhg93upRKbdfs2Zr3j3+oICPD6VJwCgQAAK4SFR+v0fPnq3qzZk6X4gqZO3Zo1pAhOrZ7t9Ol4C9YBQDANaLi4zVu8WIe/j5UvVkzjVu8WFHx8U6Xgr8gAABwhdDq1TVq7lxVqV/f6VJcp0q9eho1d65Cq1d3uhT8CQEAgCuc98Ybim7Z0ukyXCu6ZUud98YbTpeBPyEAAKj0Wowfr+Zjxjhdhus1HzNGLcaNc7oM/I4AAKBSCwoLU//nnnO6DPyu//PPKygszOkyIAIAgEquzdVX897fj1SpX19trr7a6TIgAgCASq7DjTc6XQL+ouPNNztdAsRZAAAqsVqdOqlmhw6G22Vu367EZ57Rb99/r5yUFJUWF9tQXcUVEBSkyDp11HDIEHW7/37DWyjHtG2rWh076tC6dTZViPJgBABApdVoyBDDbXZ/840+6NRJG996S1nJyTz8T6G0uFhZycna+NZb+qBTJ+3+5hvDfTQaOtSGymAEAQBApVWnVy9D1x/bvVvfTpjAQTYGFOfm6tsJEwzv9Fend2+bKkJ5EQAAVFrRrVoZun71c8+pKDvbpmoqr6LsbK169llDbWoY/N7AegQAAJVWZFycoev3zJ1rUyWV39558wxdH1mnjk2VoLwIAAAqreAqVQxdn71vn02VVH5ZycmGrg+uUkXyeGyqBuVBAABQaQUEBhq6vqSoyKZKKr/SoiKprPyHy3oCAuQhADiKAAAAgAuxDwCASie8Zk2Fx8Y6XQbg1wgAACqcyDp1VLN9e8W0a6carVsrsm5dRcbFKaJ2bUXExiogONjpEgG/RwAA4PciatdW4wsvVIOBA1W3Tx9FNW7sdElAhUcAAOCXQqOj1eqyy9T6yitVu1s3eQKYsgRYiQAAwK9Ua9JE3R54QK2uvJJjYwEbEQAA+IXQ6Gj1/c9/1PbaaxUQxK8mwG78KwPguOZjx2rg1KmKYOY+4DMEAACOCQwNVb//9//U6bbbnC4FcB0CAABHhNeqpRHffKO47t2dLgVwJQIAAJ+Lio/XqLlzFd2ypdOlAK5FAADgU1GNGmnszz+raoMGTpcCuBoLawH4THitWho5dy4Pf8APMAIAwCeCwsI0YvZs1WjVypb+c1JSlHPggHJSUpSbmqrs/fvV49FHOXIWOA0CAACfGPTqq4rr0cOSvgqOHtVv8+crddUqpa1Zo7Q1a5R/5Mjfruv+yCMcOQucBgEAgO1aXX652lx1lVd9FOfmavtnn2nbzJn6bf58lRQUnL2RgfPpJcnj8ajMYBv8jqBV4RAAANgqsm5dDXz5ZdPtS4uLtemdd7R80iTlHDhgqG1xXp6Cq1Qp9/VhMTHKO3TIaImQFB4TYygEFOflqay01MaKcDZMAgRgq/PeeEOh0dGm2h759Vd92Lmzfrj+esMPf0nKz8gwdH2dXr0M3wPH1end29D1+enpNlWC8iIAALBN22uuUeMLLjDVdsesWZrRo4eO/Pqr6ftnbttm6Poud9/NULYZHs/xr50BGQa/N7AeAQCALcJr1lT/554z1Xbz++9rzrhxKs7N9aqGtDVrDF1fr39/9X/uOY4eNsATEKD+zz2nev37G2pn9HsD6/FTDsAWvZ54wtTQf/KCBfrhn/9UWUmJ1zX89uOPhtsk3HWXxi1ZouZjxigyLo4RgVPxeBQZF6fmY8Zo3JIlSrjrLsNdJP/wgw2FwQjPixJTXgFYqkabNrpi3TrDx/qmb9miT3r3VoHBd/enExAcrOv271d4rVqW9Adr5B85ojfq1SvfSg7YhhEAAJYbMHmy4Yd/cV6eZo8cadnDX5JKi4q06d13LesP1tj47rs8/P0AAQCApRpfdJEannee4XZLH3pIGVu3Wl7PmhdeUHFenuX9wpzivDytef55p8uACAAALOQJDFTfp5823C5l2TKt9WKvgDPJOXhQiSZqgj0S//Mf5aSkOF0GxBwA+BuPRzXbt1edXr0U3aKFIuvUUXBkpIIiIpyuzK8U5+aqKDdX2fv3K2PrVqUsW6YjmzYZ3vnOah1uukmDXnnFUJuSwkJ90L69rcvCAkNCdOnKlarVqZNt98DZHVq7Vh/37Mnwv59gJ0D4heiWLdX+hhvUcsKE4zOvYVjWb79py4cfKmnyZOWmpvr8/iFRUeo5aZLhdmtfftn2NeElhYWaM3asJvzyi+lNieCdgsxMzRk7loe/H2EEAI6Kio9X32eeUfMxY1h7bZGinBytmzpVq5599pQH5Nil33PPGd4MJu/QIb3bvLkKjh61qaqT1e3TR6O//54RJR8rzsvTrCFDdGDJEqdLwZ8QAOAMj0edbr1Vff/zH34Z2yQ3LU3fXXqpkhcutP1eNVq3Pr7sLzjYULsfb7xRG15/3aaqTq1O794a8fXXCouJ8el93So/PV1fX3yxDixd6nQp+As+csHngsLDddHMmRoweTIPfxtFxMZq9Pz56vbAA7ZvZjNgyhTDD/8jv/6qX99806aKTi9l2TLN6N5dqatW+fzebpO6apVmdO/Ow99PBQ6TJjldBNwjODJSo+bOVfywYU6X4gqegAA1PO88BYaEKNnErnjl0frKKw0P/UvS9//4hzK3b7ehorMryMjQpnffVVF2tur06qXAkBBH6qisCrOytPyxx/TDddcp//Bhp8vBafAKAD4TEBSkkd9+q4aDBztdiiv9dNttli+1i4qP1+Vr1yq0WjVD7fZ+/72+GDrU0lrMCouJUefbb1e7a69VZN26TpdToeUcOKBf33pLSZMn+3T+CcwhAMBn+j37rLrcc4/TZbhWWWmpZp13nmVzAjyBgRqzcKHq9etnqF1pcbE+7NzZq1P+7OAJDFS9fv3U8NxzVbtbN0W3bKmwmBiFVK3qdGl+qSg7W3mHDytj61alJibqtx9+0P4lSyw5wwG+QQCAT9Q/5xyNWbiQg1UclrFtmz7o0MGSpVhmA92aF1/UzyYOjwFgLSYBwnaewEANevVVHv5+ILpFC3V78EGv++ly772mHv45KSlaYWKvAADWIwDAdi0vvVQ1Wrd2ugz8LuHOOxVcpYrp9u3++U/1e+YZU20X33uvCo8dM31vANYhAMB2nW67zekS8CchUVFqMW6c4XaBoaEaMHmyzvvvf02N5uz57jtt+egjw+0A2IM5ALBVjdatNXHTJsPt8g4f1topU7T722+VvW+fSgoLbaiu4goMCVGV+vXV+IIL1Om22xRes6ah9ikrVuiTXr3KfX1s58467803FZuQYLRUSVJuaqo+6NBBuWlpptoDsB5nAcBWZtb7pyxfrq9HjFDeoUM2VFR55KamKm31aq1/7TVd/NVXqmPggV6nRw9FxMae9YFcu2tX9Xj0UTUZPtz8HI6yMn1/zTU8/AE/wysA2Kpu376Grs9JSdFXw4fz8Dcg79AhfTV8uLEjVj2e0waG6BYt1PW++zR+6VJNSExUk4sv9moC57pp07Tn229NtwdgD0YAYCujk/9W+/gAm8oi/8gRrX72WfV/4YVyt6nRurX2/fyzanXsqJrt26tmhw6q27evarRqZVld+3/+WT+b2CUQgP2YAwBb3ZSRodDq1ct9/bvNmytzxw4bK6q8qjdrpqsMbK1bUlCgwNBQ2+rJ3LFDn/TqpTy2ggX8Eq8AYCujy82ykpNtqqTyO7Z3r6Hr7Xz45xw4oFlDhvDwB/wYAQC2CggMNHQ9s/3NKy0qksr8Y0DvyMaNih82TPX69TM0AgTAd5gDAMByDQcPPunQp6zfflPq6tU6uGKFUlasUNrq1SrKyXGwQgAEAAC2q9qwoao2bKhmo0ZJOn4g0KGkJCUvWKDkBQu0f8kSFefmOlwl4C5MAoSt7igtNbSE7KWAAL8Zxq6IjH69/UVJYaEOLFmiXV9/rZ1ff61ju3c7XRJQ6REAYCsCgG9V1ADwV4c3bND2zz7T1hkzlGlgZQOA8iMAwFYEAN+qLAHgz1ITE7Xlo4+0+f332SMCsBCrAAD4tdrduumcF1/UP/ft07APPlC9/v2dLgmoFAgAACqEoLAwtbr8co1dtEiXJyWp9cSJ8hhcZgrg/xAAAFQ4tTp10tDp03XFunVqPXGiAoJY0AQYRQAAUGHFtG2rodOn66pt29ThxhsVEBzsdElAhcEkQNiKSYC+ZeTrnZuaqtmjRys4IkIBQUEKrlpVHo/n+M59Ho/CoqMVGh39t/8bERuriNq1/fJhm75lixbdcYf2zpvndCmA32PcDHCpksJCpSxbZq6xx6PIuDhF1q2rKnXrqmqDBqraqJGiW7ZUdMuWqtakiQJDQqwtuBxqtGqlUXPnatfs2fr57rtZQgicAQEAgHFlZcpJSVFOSorSVq/+2x8HBAUpKj5eMW3bKjYhQbFduqh2166KqF3bJ+U1GT5cjYYOVdJLL2nlv/6louxsn9wXqEh4BQBb8QrAt4x8vbOSk/VWw4Y2V3SyKvXrq27v3qo/cKAaDBqk6BYtbL/n0V279P1VV2n/4sW23wuoSAgAsBUBwLf8PQD8VZX69dVo8GA1HTlSDQcPVlB4uC33KSst1ZoXXtDyRx9VcX6+LfcAKhpWAQBwTPa+fdr4zjv6esQIvR4bqznjxmn7zJkqKSiw9D6egAB1ueceTVi1SrEJCZb2DVRUBADYqszgp3lPJdvG1qeMfu38bKSlKDtb22fO1Jxx4/Rm/fpadOedOrJxo6X3iGnbVuOXL1en226ztF+gIiIAwFZGj3gNi4mxqZLKL7xmTUMhoCgnx8ZqvJN3+LCSXnpJ77drp88HDdKeuXMtCyyBISEaMHmyzv/oIwVHRlrSJ1AREQBgq/yMDEPX1+3Tx6ZKKj+jX7v89HSbKrFW8sKF+vL88/VBp07a9sknlgWBlhMm6NIVK3wyERHwRwQA2Cpz2zZD13e+445Kd5qdT3g8SrjzTkNNMgx+b5x2eP16fXvppfqoWzf99sMPlvQZ066dJiQmqvFFF1nSH1CREABgq9RTrBE/k/rnnKMejz5qUzWVV49HHzV8Sl7amjU2VWOvtNWrNWvwYH110UU6tnu31/2FREXp4i+/VOfbb7egOqDiCBwmTXK6CFRurSdONHR9g4EDVb1FCx1au1YFBl8huE21Jk00aNo0dbr1VsNtF999t/IOH7ahKt/I3L5dG/77X8njUZ2ePb06GdATEKD4YcMUUbu29s6bp7LSUgsrBfwT+wDAVgFBQbo2OVmRcXGm2qdv2aLsffssrqpyqFK/vmq0amWq7eH16/VBx44WV+Sc2M6dNfT99xXTtq3Xfe2dN09zxo1T4bFjFlRWsVVv3lzxw4apbt++qtGqlao2aKDgKlX88hwIJ5UWFakoO1tZyclK37JFB5Ys0Z65c/1+K2oCAGzX+6mn1P2hh5wuA3+y8NZbtW7qVKfLsFRQWJj6/Oc/x4fyvZxHcnjDBn110UXK+u03i6qrOAKCgtRi/Hh1vOUW1enZ0+lyKrSDK1dq7csva9snn6i0uNjpcv6GAADbhdeqpWt272bJlZ/ISUnRO02bqjgvz+lSbNHskks05J13FFK1qlf95KSk6Kvhw0951kFlFT9smM6ZPJmVERbL2LZNi26//fhyVj/CJEDYLu/QIa3817+cLgO/W/rgg5X24S9JOz7/XDO6dvV6E6HIOnU0dtEiNR0xwqLK/FdQeLgGTJ6skd99x8PfBtEtWmjkd99p6Hvv+dUHIUYA4BMBwcEav3Spanfr5nQprrb3++/1xbBhfrcLoB1CqlbVkHfeUbNLLvGqn7KSEi2+916tefFFiyrzL5FxcRrx7beK7dzZ6VJcIS0pSV9deKFyUlKcLoURAPhGaVGR5owdW6FnnVd0WcnJmnvFFa54+EtSYVaWvhk7VksffNCrWf2ewED1f+EFDfvgAwVFRFhYofMi69bV2MWLefj7UGznzhq3eLEi69Z1uhQCAHzn2N69+vL881WYleV0Ka6Tf+SIvhg2THmHDjldim+VlSnx6ac1Z9w4r197tLr8co1ftkzVmjSxqDhnhVStqtHz5ql6s2ZOl+I61Zo21eh587yep+ItAgB8KnXVKn0+aJBy09KcLsU1svft08wBA5S+aZPTpThmx+ef67OBA73+uavVsaMmJCYqftgwiypzznlvvqmYdu2cLsO1Ytq103lvvOFoDQQA+FzqqlX6uHt3pSxb5nQplV7ywoWa0b27jvz6q9OlOO7gypX6uGdPpW/e7FU/YTVqaMScOer79NMKDAmxqDrfajFunFqMG+d0Ga7XYvx4NR871rH7MwkQjgkIClKnW29Vz0mTFBIV5XQ5lUpBRoaWPfKI1r/+uspKSpwux6+ERkfros8+U4NBg7zuKy0pSfMmTqxQASsoLExX79zpF++gIWXv3693mzVTcX6+z+/NVsBwTFlpqVJWrNCGN95QSX6+olu0cPydWEWXvX+/Vj/3nL67/HLtX7zYNRP+jCjJz9fWGTMUWaeOYhMSvOorsk4dtfvnPxUUFqaU5cv9crOXv+pw0018+vcjIVFRyj10SAdXrvT5vRkBgN/wBAaqwaBBajR4sOJ69lSNVq0UXquW02X5tbxDh5S+ebNSli/X3vnzte+nn/jEb0CXe+5R32eekSfA+7ehmTt2aMl992nHF19YUJl9Jm7ebHoLadgjY+tWTXfge0IAgH/zeBRavbrTVfilgsxMPuFboMnFF+v8Dz9UcJUqlvR3YOlSLb7vPr+c41K7WzdN+OUXw+1yDhzQmpde0u5vvtGxPXsq9UZSZgSFhyuqUSM1vugiJdx5p6nXKzO6d1dqYqIN1Z0eAQCA69Xq1EnDZ81SVOPGlvWZvHChVj39tPZ+/71lfXqr+yOPqLfBXTmTFy7UnDFjlJ+eblNVlUtodLQumjlTDc4911C7ZY8+ql+efNKmqk6NVQAAXO/Q2rX6MCFBO7/80rI+GwwcqFHz5unytWvV8X/+R6HVqlnWt1l1evQwdP2xPXs0e8QIHv4GFGRkaPaoUTq2Z4+hdk4cvEQAAAAdf6Uye/Ro/XzXXSotKrKs31odO2rgtGm67sABDX3vPTUZPlxBYWGW9W9EtMH3zIlPP83GXSYUZmXpl3//21AbJ+Zl8AoAAP6iTs+euuCTT1S1YUNb+i/MytLuOXO057vvlPzjj8rev9+W+/zVTZmZhkYi3o6P17G9e22sqPKqUr++/pmcXO7rC7Oy9IqPl0MTAADgFMJq1NCgV1/1yZK5jK1blbxwoVJ/+UWpq1crfdMmW5YU3l5cLE9gYLmvnxISYuloiJt4AgN1e1GR5PGUr0FZmV4KDPTpxF4CAACcQfMxYzRw2jRFxMb67J7FeXk6vH69jmzapMzt25WxbZsyt2/X0V27VJSdbbrfO0pLy/9AkjQ5MNCrg5Tc7vaSEkNLTH399Q7y2Z0AoALa/tln2vfTT+r79NNqc/XVluwZcDZB4eGK69FDcaeYtFeUk6Os5GTlHjyo7H37lJ+eroKjR1WQmamCo0dV+Pt/l6Si7GyVFBVJZWV//G/ACYwAAEA5xXbpooFTpzoyY9sJjAB4x99HAFgFAADllLZ6tT7t00dzxo3T0Z07nS4H8AoBAAAMKCst1faZM/Vemzb66bbblJOS4nRJgCkEAAAwoaSwUGtffllvx8dr3j/+4fUxw4CvEQAAwAslhYXa/N57er9dO80eNUp7583jvTkqBAIAAFigrLRUO7/8Ul8MG6Z3mjbVL089pex9+5wuCzgtAgAAWOzYnj1a9sgjerNBA33UtavWTpminAMHnC4LOAnLAAHABzwBAYrr0UONhg5VoyFDFNe9u6Fd+ZzAMkDv+PsyQAIAADggNDpaDQYOVN2+fVWnRw/FdumiwNBQp8s6CQHAO/4eANgJEAAcUJCRoR2zZmnHrFmSpMCQEMUmJCi2a1fVbNdONdq0UUzbtgqrUcPhSlFZEQAAwA+UFBYqZcUKpaxYcdL/HhkXpxqtW6tqw4aKio9X1YYN//hPZFycQnx8ghwqDwIAAPixnIMHlXPw4Gn/PCA4WOExMQqLiVFYjRoKi4lRUFiYQqKi5AkMVEhUlAJ+/79d77/fh5XD3xEAAKACKy0qOmtIOKHrffcZOg0QlRvLAAEAcCECAAC4hNEZ5oFhYTZVUvkFhoYaOzq6rExlZb5dlEcAAACXKMzONnR99aZNbaqk8qverJmh6wuzsyUCAADADnmHDhm6vvnYsTZVUvkZ/drlpaXZVMnpEQAAwCUytmwxdH3n229XVHy8PcVUYlGNGinhzjsNtUk3+L2xAgEAAFzir3sMnE1IVJRGzplDCDAgqlEjjZgzx/D+DCnLl9tU0ekRAADAJfbOm2e4TY02bXTFunXq9fjjimnXTkFMDPyboLAwxbRrp56TJumK9esV07at4T7MfG+8xVkAAOAiEzduVI02bZwuA3+SsW2bprdqxSRAAIB91r36qtMl4C/WTZ3q84e/RAAAAFfZ+Oabyt63z+ky8Lvsffv06xtvOHJvAgAAuEhxfr4W3XWX02Xgdz/dcYeK8/MduTcBAABcZvvMmdr68cdOl+F6Wz/+WDs+/9yx+xMAAMCFfrjuOh3esMHpMlzr8IYN+uG66xytgQAAAC5UlJ2tL4YO1dGdO50uxXWO7typL4YNU5HBrZmtRgAAAJfKSUnRp337Km3NGqdLcY20pCR92q+fcg4ccLoUAgAAuFnOwYP6tE8frZ0yxelSKr3N77+vmf36KSclxelSJLEREADgd42GDtWAKVMU3aKF06VUKhlbt+qn2293ZLe/MyEAAAD+EBAUpBaXXqpOt9yiuB49nC6nQju4cqXWTp2qbR9/rNLiYqfL+RsCAADglKo3b674YcNUr18/Rbdqpar16yuk2pyN1gAAIABJREFUWjV5Anh7/GdlpaUqPHpUWfv2KWPLFu1fvFh75s5V5vbtTpd2RgQAAABciBgHAIALEQAAAHAhAgAAAC5EAAAAwIUIAAAAuBABAAAAFyIAAADgQgQAAABciAAAAIALEQAAAHAhAgAAAC5EAAAAwIUIAAAAuBABAAAAFyIAAADgQgQAAABciAAAAIALEQAAAHAhAgAAAC5EAAAAwIUIAAAAuBABAAAAFyIAAADgPmWesrKyMqerAAAAvsUIAAAALkQAAADAhQgAAAC4EAEAAAAXIgAAAOBCBAAAAFyIAAAAgAsRAAAAcCECAAAALkQAAADAhQgAAAC4EAEAAAAXIgAAAOBCBAAAAFyIAAAAgAsRAAAAcKEgpwsAvPGSx2NLv3eUldnSLwD4C0YAAABwIQIAAAAuRAAAAMCFmAMAAKg0ivPyVJKf/8f/HxgaqqCICAcr8l+WBgA7JmTV7tZNl65YIU+AtYMVdk0eOxMmlgHeceLf7Z95AgMVEhUlT0CAImJjFREbqyr16yu6ZUvVaN1asQkJqtakic/qcfrrYZeQqlX1P8eOnfEaJ//uQWFhCgwPV0iVKgqKiFCV+vVVrXFjVWvSRLW7dlVcjx4KiYpyrL7y8vsRgNTERG169121veYap0sB4HJlJSUqyMiQJOUfOaL0zZv/dk3VBg3U4Nxz1fySS9RwyBAFhoT4ukzYrDg/X8X5+X/8LGRs3arkP/25JyBANTt0ULPRo9V8zBjVaN3amULPokLMAVh8333KP3LE6TIA4KyykpO16d139dXw4XqjTh0tuf9+Ze/b53RZ8KGy0lIdWrtWyx97TO+1aaMZ3btr68cfq7S42OnSTlIhAkD+kSNa9uijTpcBP9Tl3nvVaMgQRdap43QpwN/kp6dr1f/7f3q7SRMtuvNOFWRmOl0SHJCamKjvJkzQu82aaeuMGZKfvA72lJVZV4md72Q8AQEav3y54rp3t6Q/5gBUPnmHDunw+vU6tG6dDm/YoMPr1yttzRpTffG98k8V/Z13eK1aOu+NN9R0xAhL+qvoX4/T8fc5AN6q26ePBr36qmq2b+9oHRViBEA6PqSy8OabVVZa6nQp8FPhtWqpwbnnKuGuuzTknXd02erVTpcEnCTv0CHNHjVKi+64Q2UlJU6XA4ccWLpUM7p1U9LkyY6OBlSYACBJqatWaeNbbzldBgCYV1ampMmTNWfsWBX/abka3KWkoECL7rhDc8aNc+znoEIFAEla8sADyjt82OkyAMArO774QvOuvJJRTZfb/tln+nzgQEeea4GTJk2aZFVnBUePKig0VPkZGSopKLCq25MU5+Wp8OhRNRk+3Kt+8jMy5AkMVP7hw7bOzAyvVUt1e/dW05Ej1WjoUNvug1Nb8fjjptr1tO6fBSxUeOyYgiIjVZSVpeLcXKfL8Vr6pk3yeDyqP2CAqfZF2dkKjoxUUXa2inJyrC3OQYGhoer24INnvKYgM1OBoaEqSE9XSWGhjyqzR/a+fdo7b55aXnqpgsLDfXZfSycB/qGsTJk7d+pQUpLS1qxRWlKSDq5cadkMWCsnBJYWF+vIxo1KTUxU6qpVSk1MND1xrFbHjqrZoYNqtm+vmr//98i4OK9rhHlmJwoxCdD/5aSk/G3S5+H1650uy7CAoCBdunKlYhMSvOonNzX1b1+PQ2vXWlSlb5VnEuAJZaWlytyx4/iz5vf/JP/4o80V2qNO7966ZP58n+1caE8AOIXF99yj1c8/b1l/sV26aMLKlfIEBlrW5wk8NCoPvpfuYvb7HdulS7muKzx6VPkZGSrIyLB06L5O794av3SpZf2dUFFnyhsJAKfii5+D4vx85Rw4YPkrnCYXX6yLv/xS8sH3zu93AjydtNWrteGNN9ThxhudLgVABXfZqlWGri8tKlLamjU6sGyZNr/3nteftFOWLVPyjz+qwbnnetWPJTwe3WHTvIRXo6P9ei8Eoz8HJQUFyti6VfsXL9au2bP12w8/eL26Y9fXX2v1c8+py733etVPeVS4SYB/tvShh5R36JDTZQBwmYDgYMX16KGEO+/U5UlJGv3996rWtKlXfa579VWLqvNf4TVrOl2CpQJDQ1WzQwd1vPlmjZo7V1fv3Kn2N9yggCDvPlsvffhhHVy50qIqT69CB4CCjAwtOctEEQCwW8PBg3XZqlWKHzbMdB97vv1WhVlZFlblfypbAPirqEaNdO5rr2n88uWq0aqV6X5Ki4q04KabbN8rokIHAEna+PbbSlm+3OkyALhcaPXqumjWLNOTk4vz8rT/558trsq/hFXyAHBC7a5dNX7FCq9e6aQlJWn9669bWNXfVfgAoLKy4zsEsqsWAIcFhYfrgo8/Nn0CYGX/MFPZRwD+LLRaNY2YPVv1+vc33cfKJ55QcV6ehVWdrOIHAP2elF57zekyAEBRjRur3fXXm2p7eMMGi6vxL24KANLxQDj8iy8UFR9vqn1uaqo2TZ9ubVF/UmFXAfzV0oceUrPRo113Klz6li1KWbZMaUlJOrprl47t3q2CzEwV5+cf3ySkShUFhYYqNDpaUfHxqtakiWp17Ki6ffocP6Paz5YJlZWWKnXVKv02f74OrVunjK1blXvwoIpyclRaVKSQqChVbdBANTt0UINzz1WTiy5SaHS002V7JXv/fu1btEgHV6xQ5vbtyty5U3mHD6skL0/F+fkKCg9XYFiYImJjVbVhQ1Vv2lS1u3dXnR49VKNNG6fLxym0vfpqrZs61XC7rL17bajGf4TFxDhdgs+F1aihodOna+aAAab2/V/z/PPqcMMNtvyurjQBoPDYMS17+GENfvttp0uxXdrq1dry4Yfa+sknyjlw4IzXFmRkqEBSzsGDSt+8+aQ/i6hdW83HjFHLCRNUt08fGys+u9zUVK1/7TVteP115aSknPa6vMOHlXf4sNKSkrRp+nQFhYWpzdVXq9sDD6hqw4Y+rNg7+enp2vLBB9r8/vtKPcvSo+K8PBXn5akgI0MZW7fqt/nzpd9HvKo3a6bmY8ao3XXXqVqTJr4oHeVQq1MnRcTGKjctzVC77LP8e67o3DYCcEK9/v3V9qqrtPGddwy3zdyxQykrV6pOz56W11VhNwI6JY9HYxYuVP1zzvGqG3/dPGbvvHn65d//tmWiUO1u3dT9oYeOH1Pqw1GBkoICrXnxRf3y1FMqys423U9QRIS6P/SQut5//0lLcPzte1mQkaHVzz+vtVOmWDrj2xMYqOaXXKLeTz2l6s2aWdZvReNP3++Z55xj+N9qcGSkbvbi38Ffmfp62LgPgK/408/BCVnJyXq3eXNT2+Qn3Hmn+r/wguU1VYo5AH8oK9PCW26xdW9/J+QcOKBvRo/WF8OG2TZLODUxUbNHjdLMc87520iBXY7t2aNPevfW0gcf9OrhL0nFubla9sgjmtm/v4756TDqzi+/1Htt2uiXp56yfLlXWUmJtn36qT5o314rHn+cSbF+ICI21nAbTgesvKo2aKAW48ebarvzq68srua4yhUAJB359Vetf+UVp8uwzNaPP9a7LVtqxxdf+OR++xcv1kcJCfr1jTdsvU/qqlX6qGtX0+cunE7K8uX6pFcvHVq3ztJ+vXFiTe/sUaOUc/Cgrfcqzs/XikmT9Pl55xkefoa1zKwE8OVBMPC9ttdcY6rd0V27zvq61wy/DwDBVaoYbrP8scds/0Vru7IyLX3wQX132WVefzo2qjg/Xz9cf71tyytTV63SrMGDlX/kiOV9S8cPifls4ECfjWScSWFWlr44/3yfr1LZ99NPmtm/v7L37fPpffF/zASwkKpVbagE/qJev36mRoYk6YANZ0X4fQC4fM0aBYaGGmpTcPSoltx/v00V+cbi++9X4tNPm5o1apV1r7yi+ddea+lhFzkHD+rrESNs3w+8ICNDX154oa33OJvivDx9ffHFjp1MlrF1qz4bOJDtsh1i5lWU21YxuY0nIEANBg0y1TYtKcniaipAAKjevLm63H234Xab339f+376yfqCfGDZI49o9bPPOl2GJGnT9On66bbbLOmrrLRU344fb8tQ1qkc273bJ/c5lbLSUn176aWO/wxm7tih2aNHm5p4BPOO7dmjzO3bDbeLadvWhmrgT2qb3CnSjt9nfh8AJKn7I48oqnFjY41OTAgsKrKnKJvsmDVLv/z7306XcZJ106Zpw3//630/U6dW+q1OT/jlySe16+uvnS5DknRgyRItfeghp8twla0zZphqV6tzZ4srgb+p2b69qXZHd+2yuJIKEgCCwsN1zosvGm53ZONGrTWxGYdTMrZt07yJEx0d9j+dn2691ashqJwDB7TskUcsrMh/7V+8WCueeMLpMk6S9NJLSl640OkyXKEgI0Orn3vOeEOPR81GjbK+IPiVqg0amGpnx7y2ChEAJKnpiBFqfNFFhtut+N//9dmQs1fKyvTj9derKCfHku5Cq1VTtSZNFFq9uiX9lRQW6odrrzW9xDLx6actXfoWXKWKgiIiLOvPKiWFhfrxhhu8njwZGBqqqg0bKrZLF0XFxysoLMyr/spKSyvlEll/U1JYqDnjxik/Pd1w23r9+pneMhYVh9lJgFY9G/6sQu0EOHDqVCUvWKDi3NxytynMytLi++7TsA8+sLEy7218913tW7TIdPug8HC1ueoqtZwwQbW7dDnp4Vicm6u0pCRtnTFDG995x9DX78/SkpK09uWXlXDnnYba5aSkeL2sMDIuTh1vuUXxF1ygao0b/xFsCjIzlZqYqO2ff67N771n68EZ5ZH04oterT6o1amTut5/v5oMH67gyMg//veSwkLt//lnbXj9dW3/7DNTfadv2qRf33hDHW66yXR9OL3ctDR9f/XV+u2HH4w39njU56mnrC/KjLIy0xvpnFUl2GTIW2Y/uBTbEAAqzAiAdPys5W4mZvdv+fBDvx7+LCks1MrHHzfdvk7PnrpywwYNeuUV1evX728/YEEREarbp48GTp2qiRs3ql6/fqbvlfif/xhelrjxrbe82uCk9cSJumr7dnV/+GHFdu580qhGaPXqajh4sM597TVdvWOHWowbZ/o+3irMytIqLyZvdr3/fk1ITFTLSy896eEvHV9T3vC883ThzJkaMWeO6fXiq559lk2CLJafnq6kl17S+23bas+335rqo9Vll6lu374WVwZ/ZHRV2wl2bBJVoUYApOO/JLd89JEytm411G7hLbfoirVrFRAcbFNl5m18+23Tu9fV699fo777rtypMio+XqPnz9fXI0Zo77x5hu+Xd+iQ1k6dqm4PPFCu68tKS/XrW28Zvs8JHW68UYNeeaVc2xNH1q2rCz75RI2GDNGC//kflRQWmr6vGetfecX03gYJd96pvk8/Xa5rG19wgS6aNUtfXXih4SWax3bv1s4vv1SzSy4xU2alVd4JVoXHjqng6FHlHzmitKQkpa1ereQFC7xaZRHbubPO5TRTOKDCBYDA0FANmDJFXwwdaqhd+qZNSpo8WV3uucemysxb/+qrptpFxMbqos8/NzykFBgaqgs//VQfdOhgKnhseO01db3vPnkCzj6AlJqYqGN79hi+hyTFdumiAVOmGD6boO211yq8Vi19M2aM71aBlJVpg8nXHLU6dlTfZ54x1CZ+2DB1uOkmrZs2zfD9Nn/wAQHgL95p2tSR+1Zr2lQXz55tasMzwFsV6hXACY2GDFGz0aMNt1v5xBPK3r/fhorMO/jLLzq8fr2ptr2eeML06VohUVHqb/JwpmN792rv99+X69pd33xj6h6SdM4LL5gesWly8cXq/eSTpu9t1L6ff9bRnTtNtR04daqpv2ePxx4zNZy4d948n+8uib+L695d45ctU5V69ZwuBS5VIQOAJJ3z0kuGU3NhVpYW+9kIwPZPPzXVLjIuTq3/8Q+v7t1s9GjTG4+UdyKamdcM0vFh0Xr9+5tqe4IvR3vMTsyL69HD9LvfiNhYNTfxSb44L0/7lywxdU94zxMQoI4336wxCxeanhEOWKHCBoCqDRqox6OPGm639eOPlbxggQ0VmbPb5KShjrfe6vXSMHk86nzHHaaa7vn227PuV1Ccl6dDa9ea6t+KmerleUVhlT3ffWeqXbtrr/Xqvg3OPddUu4MrV5b/4rIy3/2nkqvRurXGLFyogVOn+uUyVrhLhZsD8GcJd92lLR98oMMbNhhqt+Cmm3TF+vWmZ2NaJSs52fSSMas2DGk6cqR+vPFGwzPDc1JSdPjXX8+4q1Xa6tXm3sF7PGo6cqTxdg45tnu36eH/+PPP9+recSa3FTVyCuNLPgxSdp7H7qSoxo3V7YEH1O7aa+UJDHS6HEBSBR4BkKSAoCANnDbN8CSxjG3blPTSSzZVVX6piYmm2kU1bqwarVtbUkN4zZqq07Onqbapq1ad8c+PbNxoqt+Ytm0VXquWqbZOSF292lS76s2aqUr9+l7dO6J2bVPtskyuOoE5pYWFOrprlzJNBkXADhU6AEjHd89qNWGC4XYrnnjC9NI7q5gdHm8wcKClddQ32V/aWR58mTt2mOrXm30KnHDI5BbJNdq08freYTVqmGqXxTHBPpW9f79WPfOMprdsqa8vvljpW7Y4XRJQ8QOAJPV/4QXDW94W5+Zq8b332lRR+Rjdy+AEqz79nxBj8kGUsW3bGf/c7LC41X8/u53t63A6UY0aeX1vs8PJrAJwzq7Zs/VBhw5afM89bM0MR1XoOQAnRNSurZ6TJmmRwQlt22fO1J7vvvP6PaxZWcnJptpZ/YA021/2WerPSUkx1W9F2w892+Sn6bUvv6y1L79scTXlw26AziotKtLq55/XoXXrdOGnnyo0Otrpkk5SWedi4GSVYgRAkjrdcotqdepkuN1Pt9/u2FnpZvckqNqwoaV1mP0kerb680zuilfhAkBFOGzqL/jk6R9+++EHfT54sONnWMCdKsUIgHR8KHTQtGn6pG9fQ8uJMrdv1+rnn1d3B85LN3s6XkjVqpbWEWyyv8Ls7ONf69NMwjRzIpokhcfEmGrnlMJjx5wuAV5qPnZsua8tLSxUzsGDykpOtuSk0bTVq7Xgpps05N13ve4L/s/sB06vl32fqk/Le3RQnd691faqq7TxnXcMtfvlySfV6rLLfP7Js8Rk6rd629CAoCAFhYUZP2yirEzF+fmnPZimxOThFRVtfbTZvyf8x4UmN+Q6umuXds+Zo7VTppie9CpJm6ZPV5OLLza1wykqFrOnsQb95YAwK1SaVwAn9Hv2WcPb4xbn5ennu++2qaIz3NdkEgy24QFpNlScaejS7GE8Zk+6c4rZ7yMqvmpNmqjTrbdq4qZNOufFF706bGzpQw/57uwKOCY3Lc1Uu7+eEGqFShcAwmJi1Otf/zLcbsesWaZ35cOpmf1lFhgSYnElNmPClOsFBAer8x13aOScOaZ/UWds3aotH31kcWXwN2Ynf0fGxVlcSSUMAJLU/vrrFdejh+F2i26/3ZYzl08nyOROhEUmh5DO2GdOjql2Z/y0bnCDphPKKtgD1ZdbDsO/NRw8WIO9OP568/TpFlYDf2R059oTqjVpYnEllWwOwAmegAANmjZNM3r0MLTcKXPHDq157jkbKztZYHi4qcBRlJNj+hTAUykrKTE3C9njOePElMDgYFOvAUry8yvUPIDA0NBKPYubJWHGtBg/Xru//Vab33vPcNt9ixYpKzlZVRs0sKEy+IO0s+ygejpRjRtbXEklHQGQjp8l3/766w23W/H44zZUc2pmZ/NbvYmL6dUIVaqc8VO+2bMWKtrDtKLNWYD9ej72mAKCjH++Kist9avDymCtstJS/fbDD6baxnbubHE1lXQE4IQ+Tz2lHZ9/bmjShS/XR1epV09Zv/1muF32vn2mj/E9FTM1SDrrPvbBkZGmwkVhdrbCKtBSwLCYGFNLHns8+qh6PfGEDRXBadWaNlWjYcO0+5tvDLdNXbVKbbw86hv+KWXZMtOTAOv07m1xNZV4BECSQqOj1feZZ5wu47TMDvNZvY+42f7OVn+4ybPOze6s5xSzGzNVtL8njGk0ZIipdkZOakTFsvHtt021i4qPV5V69SyuppIHAElq849/qP455zhdxilVb9bMVLsMiwOA2f7OVn+EyQBwdNcuU+2cYnb/iIzt260tBH6lbp8+ptrlpqZaXAn8QU5KirZ+/LGptnYdj16pXwFIkjweDZw6VR8mJPjdGtvYhART7Q4sXWppHfsWLTLVLrZr1zP+uekHo8nDdZwS27mzzBx8nJqYqMKsLMt3doR/MLtsqyAz0+JK/EfqqlWa0a1bua69OSvL8k3PnLRi0iTT85uajxljcTXHVfoRAEmKaddOHW++2eky/ia2SxdT7Q5v2GB6LelfFR47pgNLlphqe7YAE92ypal+9//8s6l2Tonr3t1Uu5KCAv32/fcWVwN/EWZypU5lDgB5hw87XYIjUpYv169vvmmqbVR8vOra8P5fckkAkKReTzxhyzsUb0TFx5t+DbDr668tqWH3nDmmlupF1K6tmu3bn/Eas+fdH1yxwvS+BE6o1amTQqtVM9XW7C8F+D+zG1pV5pMa810YAAoyMzX3iitUVlpqqn3CXXeZ3lPlbFwTAEKqVlW/Z591uoy/ib/gAlPt1r78sukfqD9b8+KLptrFn3/+WTfAqdurl6lNckoKC7V95kxTdTkhIDhYjS+80FTbPXPnav/ixRZXBPgnt40AlBQUaM7YsabnNYXFxKjtNddYXNX/cU0AkKSWEyaowaBBTpdxkuaXXGKqXcbWrdr5xRde3fu3+fOVmphoqm156g6NjlZ0q1am+l/zwgteb7GbsmyZV+2N8OYQF1/vQAk4xewR4RVRUXa2Zo8aZXrdvyR1e/BBW84AOMFVAUCSBr36qukNauxQr18/RbdoYart4vvvNz1UXlJQoEV33mmqbZX69RV//vnluraxyRGOwxs2mF4yI0nHdu/WnPHjTbc3qsnFFyuyTh1TbdOSkrTo9tstrui4zO3blfj007b0DfuYPUjL37nlFcDhDRv0SZ8+2vPdd6b7qNG6tTrfdpuFVf2d6wJAdIsW6nzHHU6X8X88HrW/4QZTTY/u3Kl5V15pePOistJSzb/2Wh3ZaGbu+vGzFjyBgeW6ttmoUabuIUkLb7lFqSa2zdy/eLE+7d/fp+vsA4KDTX8fJWnDf/+rBTfdZNlGVBnbtmnexIma3rq1lj74oNKSkizpF8aY3SXSzMZSFUFlfwWQc/Cgfr7rLs3o2lWH16833Y8nIEADp03z6nTJ8nBdAJCOb9NpdomaHTrceKMiatc21XbHF1/oq4suUs7Bg+W6Pv/IEX1zySXa8uGHpu4XVqOGOhlIpXE9e5qe6Ficn69Zgwdr55dflu/63Fwtvu8+fTZggCOb7HS+/XavdjBc/9pr+mLIEB1at85U+5LCQm3/7DN9eeGFeq9NG21+//0/JpQlvfSS6bpgXkhUlKl2xyrYXhjlVdkCQFlpqTK3b9fGd97R7JEj9XajRlrz4otej+B0e+ghNRg40KIqT6/y7wNwCkEREer//PP6xuT7d6sFRUSo+0MP6SeTw8B7583Te61aqf0NN6jFpZeqVseOf5t8l75pk7Z9+qnWTZvm1T/CLvfea2jGuycgQB1uukk/3323qfsVZGZq9qhRiuvRQ60uv1yNhg5V1fr1/zgsKD89XYfWrtWeb7/VpunTHf0FE1q9uno8+qgWeTHClLxwoT5KSFDTkSPVdORINRoy5LThsCAjQ5k7dujw+vXav3ixds+Zc9q//7ZPPlHfZ56x5UhRnF5YdLSpjX1+ffttW7Z+La+XbJp17u8+OsveJn+Wn56unAMHVFJQYGkN9QcMUK9Jkyzt83Q8ZTadvZpz4IDS1qxRWlKSDiUlaf/ixaZ+Odfp1Us1O3RQzQ4dVKtDB8W0b296ydVffXnBBV69o/krb05NKy0u1sc9eliyDWhAUJAiatdWRO3ays/IUM7+/Za8U4xp21aXrVljeHlTwdGjeqdpU+VbOAEopGpVlRQU2PautF6/fqrXv7/q9eunOr17l3uzntLiYn3at68OrlxpWS1BEREKr1lTIVWrqjArS4VZWSrIyDDcT2U7e6Dw2DEd3rBBh9ev16F163R4wwbTEz/r9eun2l27qna3bqrdtevxUSsLHoLfXHKJdsyaZapttwcfVLcHHyz3z15BZuYfX48TXxMrfw59rbwbAZWVlOjIxo06uHKlUlas0MGVK02/3nRazfbtNXbRIoVGR/vkfpYGgGUPP/zHQ9/O7Syj4uOPh4L27dX7ySdN93N05069366dZTOwvT02NW3NGn3cs6ff7VgoHQ8V45YsUVyPHqbar37+eS2+5x6Lq/INT2CgYjt3Vt2+fXVOOZZNZmzbpo8SEvxuL4OI2Fhds3fvGY9w9nfLHn1URzZs0KH163Vs927b7hNavfofYaDPv/9tup8Vjz+uFV58mguKiFBsQoJiExI0YPLkv/35socf1qH163VkwwYd27vX9H380dkCwJIHHtDBFSuUunq15SekOiGqcWONX7JEkXXr+uyelgYAJ4aNvH3orpg0ybIjgK04N33dtGlaeMstFlRjrf4vvKAEk6sGpOOrDj5MSFD6pk0WVuV75f0e75g1S3PGjrVkrwYrDX7zTbW99lqnyzCtov2OObBkiT7t18+2OirzUP3ZAkBl+rvXbN9eI+bMMX1AnFmunAT4Z90efND0Mjw7dLz5Zr/7Bd164kSvHv6SFBgaqqHTp5s6I90bodWr+/R+JzQbPdqrT452STrFp0jYp26fPopq3NjpMuDHGg0dqnFLlvj84S8RABQYGqoBU6Y4XcZJznv9dbW64gqny5AkNbvkEg1+6y1L+qrdtasGvfKKJX2VR61OndTXwTXwXe+/36tXVHY4vGGDkhcscLoM9/B41OHGG52uAn4oICgBFrKKAAAEUElEQVRIPf/3fzVyzhzTq0W8rsGRu/qZRkOH2nbcohmewEANffddtb/+ekfraHPVVbpgxgxLP7W3u+6643tb2yyybl0N/+IL1TYwq9cO3R9+WANfftn29bzl1fbaa1W7nKexwRqd77hDNUzuiInKKTYhQeOWLlXPSZPKvaeKHQgAvxswZYqtWy4a5QkM1Lmvv65zX3/d5zsXBgQHa8DkyRryzju2PLj6P/+8uj/8sOX9nhBeq5YumT9fUfHxim7VytR5BFbqeMstGrNggaOHUdVo3Vojv/tOg998k+OHfSwwJETnvfmmX+1ACmdE1q2rwW+9pQmJiaZPEbUSAeB3VRs0sPWhZFb766/XxI0b1XDwYJ/cr07v3rp8zRpDm/2Y0fvJJzXsww8tH/qKadtWl65Y8cdJhMGRkaraqJGl9zCjbt++unLjRnW69VafJv7oFi103htv6Ir16xU/bJjP7ouT1e3TR8O//NKxoV44q1anTho6fbqu2b1bba+5xvEPJSf4RxV+IuHuu1WjdWuny/ibak2bavS8eRr+5Zeml+GdTc0OHXT+jBkat3ixYtq1s+Uef9Xqsst0xbp1aj52rNdrrj0BAep06626dMUKVWvS5KQ/izF5LLHVQqtV04ApU3TFunVqfeWVtr0WCAgOVtMRI3Tx119r4ubNavfPf/p88iX+Ln7YME3cuFGtrriC70cl5wkIUM0OHdTjscd0xbp1ujwpSa0nTjR9RLRdXL8M8K/2LVqkzwYONHUSndW1nE7K8uXaOmOGtn/2mXJSUkz3E1ajhpqNHn38lMSBA207c7o8Ulet0vpXXtG2Tz81tH7eExioZqNHq/tDD6lWp06nvGbxffdptUVHQVv5Pc7et09bP/5Y2z799PiZB170HVqtmhqcd54an3++Gg8frojYWMvq9CeV4XeMJOWmpSl5wQIlL1igw+vXKz89XflHjpzxDACWAZ7M6b97aHS0AkNCFBIVpSr16qla48aq1rSpYrt0UZ2ePR1bgWSEbTsBwgfKypS+ZYtSli9X2po1Orp7t47t3q38I0dUUlCggqNHFVyligJDQxVes6aqNmigak2aqGaHDqrbt69qtmvn6ASUUynOzdX+JUu0b+FCHdm0SZnbtys3LU3FOTkqKytTaPXqqlK37vG/Q58+ajpypMJr1XK6bK/lp6crZdkyHUxM1NGdO3Vszx7lpKSoOD9fxXl5ko4vaQwIClJkXJyqNmyoKvXrq2b79opNSFB0y5Z+M6wIoGIgAAAA4EJ8ZAAAwIUIAAAAuBABAAAAFyIAAADgQgQAAABciAAAAIALEQAAAHAhAgAAAC5EAAAAwIUIAAAAuBABAAAAFyIAAADgQgQAAABciAAAAIALEQAAAHAhAgAAAC5EAAAAwIUIAAAAuBABAAAAFyIAAADgQgQAAABciAAAAIALEQAAAHAhAgAAAC5EAAAAwIUIAAAAuND/B2eXSCjX9RKfAAAAAElFTkSuQmCC;" vertex="1" parent="1">
                    <mxGeometry x="900" y="685" width="80" height="80" as="geometry"/>
                </mxCell>
                <mxCell id="94" value="" style="group" vertex="1" connectable="0" parent="1">
                    <mxGeometry x="650" y="474" width="220" height="110" as="geometry"/>
                </mxCell>
                <mxCell id="40" value="" style="rounded=1;whiteSpace=wrap;html=1;strokeColor=none;" vertex="1" parent="94">
                    <mxGeometry width="220" height="110" as="geometry"/>
                </mxCell>
                <mxCell id="41" value="Router" style="sketch=0;aspect=fixed;pointerEvents=1;shadow=0;dashed=0;html=1;strokeColor=none;labelPosition=center;verticalLabelPosition=bottom;verticalAlign=top;align=center;fillColor=#00188D;shape=mxgraph.mscae.enterprise.router" vertex="1" parent="94">
                    <mxGeometry x="16.540000000000077" y="17" width="76.92" height="60" as="geometry"/>
                </mxCell>
                <mxCell id="93" value="Acess Point" style="points=[[0.03,0.36,0],[0.18,0,0],[0.5,0.34,0],[0.82,0,0],[0.97,0.36,0],[1,0.67,0],[0.975,0.975,0],[0.5,1,0],[0.025,0.975,0],[0,0.67,0]];verticalLabelPosition=bottom;sketch=0;html=1;verticalAlign=top;aspect=fixed;align=center;pointerEvents=1;shape=mxgraph.cisco19.wireless_access_point;fillColor=#005073;strokeColor=none;strokeWidth=2;" vertex="1" parent="94">
                    <mxGeometry x="125" y="15" width="65" height="65" as="geometry"/>
                </mxCell>
                <mxCell id="95" value="" style="endArrow=classic;startArrow=classic;html=1;rounded=0;fontSize=15;startSize=14;endSize=14;sourcePerimeterSpacing=8;targetPerimeterSpacing=8;exitX=0.5;exitY=1;exitDx=0;exitDy=0;entryX=0.75;entryY=0;entryDx=0;entryDy=0;strokeWidth=2;edgeStyle=orthogonalEdgeStyle;" edge="1" parent="1" source="36" target="14">
                    <mxGeometry width="50" height="50" relative="1" as="geometry">
                        <mxPoint x="715" y="594" as="sourcePoint"/>
                        <mxPoint x="713.6600000000001" y="680.3299999999999" as="targetPoint"/>
                    </mxGeometry>
                </mxCell>
                <mxCell id="2" value="" style="rounded=1;whiteSpace=wrap;html=1;strokeWidth=2;fillColor=#ffeeae;strokeColor=none;arcSize=5;" parent="1" vertex="1">
                    <mxGeometry x="170" y="254" width="430" height="150" as="geometry"/>
                </mxCell>
                <mxCell id="30" value="" style="group" vertex="1" connectable="0" parent="1">
                    <mxGeometry x="190" y="274" width="210" height="110" as="geometry"/>
                </mxCell>
                <mxCell id="25" value="" style="rounded=1;whiteSpace=wrap;html=1;strokeColor=none;" vertex="1" parent="30">
                    <mxGeometry width="210" height="110" as="geometry"/>
                </mxCell>
                <mxCell id="26" value="" style="points=[[0.35,0,0],[0.98,0.51,0],[1,0.71,0],[0.67,1,0],[0,0.795,0],[0,0.65,0]];verticalLabelPosition=bottom;sketch=0;html=1;verticalAlign=top;aspect=fixed;align=center;pointerEvents=1;shape=mxgraph.cisco19.user;fillColor=#a76e35;strokeColor=none;strokeWidth=2;" vertex="1" parent="30">
                    <mxGeometry x="20" y="10" width="70" height="70" as="geometry"/>
                </mxCell>
                <mxCell id="27" value="" style="sketch=0;pointerEvents=1;shadow=0;dashed=0;html=1;strokeColor=none;fillColor=#a76e35;labelPosition=center;verticalLabelPosition=bottom;verticalAlign=top;outlineConnect=0;align=center;shape=mxgraph.office.users.mobile_user;strokeWidth=2;" vertex="1" parent="30">
                    <mxGeometry x="110" y="15" width="70" height="65" as="geometry"/>
                </mxCell>
                <mxCell id="29" value="User" style="text;strokeColor=none;fillColor=none;html=1;align=center;verticalAlign=middle;whiteSpace=wrap;rounded=0;" vertex="1" parent="30">
                    <mxGeometry x="70" y="80" width="60" height="30" as="geometry"/>
                </mxCell>
                <mxCell id="97" value="AKTOR" style="rounded=1;whiteSpace=wrap;html=1;strokeColor=none;fontStyle=1;fontSize=15;" vertex="1" parent="1">
                    <mxGeometry x="470" y="274" width="110" height="40" as="geometry"/>
                </mxCell>
                <mxCell id="98" value="&lt;b style=&quot;font-size: 24px;&quot;&gt;SISTEM IoT Solar Dryer Dome&lt;br style=&quot;font-size: 24px;&quot;&gt;kosabangsa 2024&lt;br style=&quot;font-size: 24px;&quot;&gt;&lt;/b&gt;" style="rounded=1;whiteSpace=wrap;html=1;strokeWidth=2;fillColor=#1ba1e2;strokeColor=none;arcSize=5;fontColor=#ffffff;fontSize=24;" vertex="1" parent="1">
                    <mxGeometry x="619" y="254" width="430" height="100" as="geometry"/>
                </mxCell>
                <mxCell id="4" value="" style="rounded=1;whiteSpace=wrap;html=1;strokeWidth=2;fillColor=#D0FFB0;strokeColor=none;arcSize=5;" parent="1" vertex="1">
                    <mxGeometry x="170" y="420" width="430" height="410" as="geometry"/>
                </mxCell>
                <mxCell id="53" value="" style="group" vertex="1" connectable="0" parent="1">
                    <mxGeometry x="470" y="690" width="110" height="110" as="geometry"/>
                </mxCell>
                <mxCell id="50" value="" style="rounded=1;whiteSpace=wrap;html=1;strokeColor=none;" vertex="1" parent="53">
                    <mxGeometry width="110" height="110" as="geometry"/>
                </mxCell>
                <mxCell id="51" value="Suhu" style="sketch=0;outlineConnect=0;fontColor=#232F3E;gradientColor=none;fillColor=#3F8624;strokeColor=none;dashed=0;verticalLabelPosition=bottom;verticalAlign=top;align=center;html=1;fontSize=12;fontStyle=0;aspect=fixed;pointerEvents=1;shape=mxgraph.aws4.iot_thing_temperature_humidity_sensor;" vertex="1" parent="53">
                    <mxGeometry x="23" y="15" width="64" height="64" as="geometry"/>
                </mxCell>
                <mxCell id="57" value="" style="group" vertex="1" connectable="0" parent="1">
                    <mxGeometry x="190" y="690" width="110" height="110" as="geometry"/>
                </mxCell>
                <mxCell id="16" value="" style="rounded=1;whiteSpace=wrap;html=1;strokeColor=none;" vertex="1" parent="57">
                    <mxGeometry width="110" height="110" as="geometry"/>
                </mxCell>
                <mxCell id="31" value="Kelembapan" style="sketch=0;outlineConnect=0;fontColor=#232F3E;gradientColor=none;fillColor=#3F8624;strokeColor=none;dashed=0;verticalLabelPosition=bottom;verticalAlign=top;align=center;html=1;fontSize=12;fontStyle=0;aspect=fixed;pointerEvents=1;shape=mxgraph.aws4.iot_thing_humidity_sensor;" vertex="1" parent="57">
                    <mxGeometry x="23" y="13" width="64" height="64" as="geometry"/>
                </mxCell>
                <mxCell id="70" value="" style="group" vertex="1" connectable="0" parent="1">
                    <mxGeometry x="318.5" y="540" width="133" height="100" as="geometry"/>
                </mxCell>
                <mxCell id="67" value="" style="rounded=1;whiteSpace=wrap;html=1;strokeColor=none;" vertex="1" parent="70">
                    <mxGeometry width="133" height="100" as="geometry"/>
                </mxCell>
                <mxCell id="68" value="Mikro Kontroller" style="sketch=0;pointerEvents=1;shadow=0;dashed=0;html=1;strokeColor=none;fillColor=#434445;aspect=fixed;labelPosition=center;verticalLabelPosition=bottom;verticalAlign=top;align=center;outlineConnect=0;shape=mxgraph.vvd.scsi_controller;fontSize=12;" vertex="1" parent="70">
                    <mxGeometry x="22.059999999999945" y="20" width="88.89" height="40" as="geometry"/>
                </mxCell>
                <mxCell id="71" value="RUMAH PENGERING" style="rounded=1;whiteSpace=wrap;html=1;strokeColor=none;fontStyle=1;fontSize=15;" vertex="1" parent="1">
                    <mxGeometry x="190" y="440" width="180" height="40" as="geometry"/>
                </mxCell>
                <mxCell id="73" value="" style="endArrow=classic;html=1;rounded=0;strokeWidth=2;fontSize=12;startSize=14;endSize=14;sourcePerimeterSpacing=8;targetPerimeterSpacing=8;exitX=0.5;exitY=0;exitDx=0;exitDy=0;entryX=0;entryY=0.5;entryDx=0;entryDy=0;" edge="1" parent="1" source="16" target="67">
                    <mxGeometry width="50" height="50" relative="1" as="geometry">
                        <mxPoint x="350" y="690" as="sourcePoint"/>
                        <mxPoint x="400" y="640" as="targetPoint"/>
                        <Array as="points">
                            <mxPoint x="245" y="590"/>
                        </Array>
                    </mxGeometry>
                </mxCell>
                <mxCell id="74" value="" style="endArrow=classic;html=1;rounded=0;strokeWidth=2;fontSize=12;startSize=14;endSize=14;sourcePerimeterSpacing=8;targetPerimeterSpacing=8;exitX=0.5;exitY=0;exitDx=0;exitDy=0;entryX=1;entryY=0.5;entryDx=0;entryDy=0;" edge="1" parent="1" source="50" target="67">
                    <mxGeometry width="50" height="50" relative="1" as="geometry">
                        <mxPoint x="350" y="690" as="sourcePoint"/>
                        <mxPoint x="400" y="640" as="targetPoint"/>
                        <Array as="points">
                            <mxPoint x="525" y="590"/>
                        </Array>
                    </mxGeometry>
                </mxCell>
                <mxCell id="77" value="" style="group" vertex="1" connectable="0" parent="1">
                    <mxGeometry x="330" y="690" width="110" height="110" as="geometry"/>
                </mxCell>
                <mxCell id="33" value="" style="rounded=1;whiteSpace=wrap;html=1;strokeColor=none;" vertex="1" parent="77">
                    <mxGeometry width="110" height="110" as="geometry"/>
                </mxCell>
                <mxCell id="75" value="Stream" style="sketch=0;outlineConnect=0;fontColor=#232F3E;gradientColor=none;fillColor=#3F8624;strokeColor=none;dashed=0;verticalLabelPosition=bottom;verticalAlign=top;align=center;html=1;fontSize=12;fontStyle=0;aspect=fixed;pointerEvents=1;shape=mxgraph.aws4.camera;" vertex="1" parent="77">
                    <mxGeometry x="25" y="16" width="60" height="60" as="geometry"/>
                </mxCell>
                <mxCell id="78" value="" style="endArrow=classic;html=1;rounded=0;strokeWidth=2;fontSize=12;startSize=14;endSize=14;sourcePerimeterSpacing=8;targetPerimeterSpacing=8;entryX=0.5;entryY=1;entryDx=0;entryDy=0;exitX=0.5;exitY=0;exitDx=0;exitDy=0;" edge="1" parent="1" source="33" target="67">
                    <mxGeometry width="50" height="50" relative="1" as="geometry">
                        <mxPoint x="270" y="770" as="sourcePoint"/>
                        <mxPoint x="320" y="720" as="targetPoint"/>
                    </mxGeometry>
                </mxCell>
                <mxCell id="103" value="" style="endArrow=classic;startArrow=classic;html=1;rounded=0;strokeWidth=2;fontSize=18;startSize=14;endSize=14;sourcePerimeterSpacing=8;targetPerimeterSpacing=8;exitX=0.5;exitY=0;exitDx=0;exitDy=0;entryX=0;entryY=0.5;entryDx=0;entryDy=0;edgeStyle=orthogonalEdgeStyle;" edge="1" parent="1" source="67" target="14">
                    <mxGeometry width="50" height="50" relative="1" as="geometry">
                        <mxPoint x="560" y="670" as="sourcePoint"/>
                        <mxPoint x="610" y="620" as="targetPoint"/>
                        <Array as="points">
                            <mxPoint x="385" y="500"/>
                            <mxPoint x="590" y="500"/>
                            <mxPoint x="590" y="725"/>
                        </Array>
                    </mxGeometry>
                </mxCell>
                <mxCell id="104" value="" style="endArrow=classic;startArrow=classic;html=1;rounded=0;strokeWidth=2;fontSize=18;startSize=14;endSize=14;sourcePerimeterSpacing=8;targetPerimeterSpacing=8;exitX=1;exitY=0.5;exitDx=0;exitDy=0;entryX=0;entryY=0.5;entryDx=0;entryDy=0;edgeStyle=orthogonalEdgeStyle;" edge="1" parent="1" source="25" target="40">
                    <mxGeometry width="50" height="50" relative="1" as="geometry">
                        <mxPoint x="395.0000000000002" y="550" as="sourcePoint"/>
                        <mxPoint x="680" y="735" as="targetPoint"/>
                        <Array as="points">
                            <mxPoint x="610" y="329"/>
                            <mxPoint x="610" y="529"/>
                        </Array>
                    </mxGeometry>
                </mxCell>
            </root>
        </mxGraphModel>
    </diagram>
</mxfile>